#!OML:ASF I:\Actors\actors\Patient Classification 1\Patient 1\Session 1\Subject1.ASF
:FULLY-SPECIFIED
:DEGREES
606
root 0.543264 17.4686 9.47809 9.40139 -6.05961 -9.03118
lowerback -4.43796 2.14022 7.09093
upperback -7.56098 2.85538 1.78201
thorax -5.16258 1.09843 -2.09576
lowerneck -10.9577 -2.75508 -0.585977
upperneck 33.2541 -5.19735 3.55398
head 13.0543 -1.9331 0.743318
rclavicle -6.90777e-015 -2.50469e-014
rhumerus 4.27075 37.1683 -71.1769
rradius 128.28
rwrist 0.705881
rhand 44.068 -41.1013
rfingers 7.12502
rthumb 65.6692 -47.1232
lclavicle -6.90777e-015 -2.50469e-014
lhumerus -45.5575 -23.1051 104.319
lradius 127.272
lwrist 20.9488
lhand -17.1016 -3.91599
lfingers 7.12502
lthumb 9.13733 25.8661
rfemur -2.56731 25.1004 25.9733
rtibia 1.887
rfoot -12.1446 -23.7366
rtoes -0.0227487
lfemur 12.0764 -49.547 -17.9456
ltibia -4.99732
lfoot -43.5117 58.332
ltoes 23.5934
607
root 0.547392 17.4711 9.47672 9.46732 -6.40634 -9.00399
lowerback -4.40239 2.30336 7.27905
upperback -7.59838 3.07107 1.64735
thorax -5.19054 1.1898 -2.33993
lowerneck -10.8944 -2.76811 -0.498
upperneck 33.1047 -5.27211 3.6823
head 12.9817 -1.94224 0.767484
rclavicle -2.31087e-014 1.35174e-014
rhumerus 6.46327 38.404 -69.884
rradius 127.917
rwrist 1.71817
rhand 41.0117 -40.0099
rfingers 7.12502
rthumb 63.2284 -49.8853
lclavicle -2.31087e-014 1.35174e-014
lhumerus -45.5526 -23.4877 104.269
lradius 127.168
lwrist 20.917
lhand -17.0683 -4.01949
lfingers 7.12502
lthumb 9.1694 25.7612
rfemur -2.68762 25.0468 25.8365
rtibia 1.8736
rfoot -12.0149 -23.3858
rtoes -0.0986493
lfemur 12.1234 -49.4562 -18.0735
ltibia -4.98937
lfoot -44.2871 58.2868
ltoes 24.198
608
root 0.549374 17.473 9.47502 9.48672 -6.71567 -9.0214
lowerback -4.34118 2.45499 7.43921
upperback -7.6001 3.27374 1.54754
thorax -5.19674 1.27876 -2.53297
lowerneck -10.8354 -2.77986 -0.457628
upperneck 32.8963 -5.35047 3.8767
head 12.8892 -1.95158 0.824556
rclavicle -2.68856e-014 -3.97569e-015
rhumerus 8.61441 39.4383 -68.5272
rradius 127.479
rwrist 3.10671
rhand 37.4512 -39.2222
rfingers 7.12502
rthumb 60.2509 -52.7364
lclavicle -2.68856e-014 -3.97569e-015
lhumerus -45.4441 -23.8587 104.253
lradius 127.064
lwrist 20.8746
lhand -17.0395 -4.22396
lfingers 7.12502
lthumb 9.19725 25.5555
rfemur -2.73787 25.0697 25.7994
rtibia 1.86896
rfoot -11.9179 -23.1153
rtoes -0.155903
lfemur 12.1997 -49.3223 -18.1609
ltibia -4.96683
lfoot -44.9302 58.2239
ltoes 24.7666
609
root 0.549988 17.4741 9.47273 9.48604 -6.92884 -9.0397
lowerback -4.25868 2.53045 7.50547
upperback -7.59168 3.38035 1.5229
thorax -5.2201 1.32677 -2.59769
lowerneck -10.9061 -2.77698 -0.421368
upperneck 32.8146 -5.37628 3.9516
head 12.8726 -1.94916 0.841972
rclavicle 7.40473e-015 1.19271e-015
rhumerus 10.5503 40.2264 -67.2895
rradius 126.904
rwrist 4.87168
rhand 34.3385 -38.3843
rfingers 7.12502
rthumb 57.5594 -54.4945
lclavicle 7.40473e-015 1.19271e-015
lhumerus -45.3418 -24.0626 104.322
lradius 127.076
lwrist 20.8064
lhand -17.2161 -4.10883
lfingers 7.12502
lthumb 9.0268 25.678
rfemur -2.77368 25.0897 25.7907
rtibia 1.89955
rfoot -11.8657 -22.9029
rtoes -0.351852
lfemur 12.2245 -49.1565 -18.1888
ltibia -4.93584
lfoot -45.0693 58.2293
ltoes 24.8386
610
root 0.550655 17.4747 9.46985 9.4874 -7.0357 -9.00954
lowerback -4.15879 2.58516 7.51257
upperback -7.61188 3.46248 1.47207
thorax -5.28694 1.36283 -2.65893
lowerneck -10.9872 -2.81958 -0.382792
upperneck 32.7984 -5.4672 4.00478
head 12.8873 -1.97664 0.84148
rclavicle 1.28216e-014 -1.90833e-014
rhumerus 11.9876 40.6249 -66.3823
rradius 126.151
rwrist 7.43219
rhand 31.8452 -37.3432
rfingers 7.12502
rthumb 55.3578 -55.2199
lclavicle 1.28216e-014 -1.90833e-014
lhumerus -45.3357 -24.2805 104.496
lradius 127.152
lwrist 20.8739
lhand -17.6208 -3.97986
lfingers 7.12502
lthumb 8.63628 25.8235
rfemur -2.81551 25.0832 25.728
rtibia 1.92647
rfoot -11.8636 -22.7801
rtoes -0.433286
lfemur 12.1792 -49.1017 -18.2361
ltibia -4.83589
lfoot -45.2231 58.1923
ltoes 24.8811
611
root 0.551358 17.4756 9.46706 9.47485 -7.04237 -9.00163
lowerback -4.05127 2.64437 7.54986
upperback -7.6349 3.5503 1.38703
thorax -5.35711 1.3989 -2.77313
lowerneck -11.0165 -2.90741 -0.433152
upperneck 32.7355 -5.65254 4.2197
head 12.8834 -2.0378 0.906131
rclavicle 1.0138e-014 -1.43125e-014
rhumerus 12.9784 40.6588 -65.7604
rradius 125.273
rwrist 10.5599
rhand 29.969 -36.6274
rfingers 7.12502
rthumb 53.6791 -55.6801
lclavicle 1.0138e-014 -1.43125e-014
lhumerus -45.321 -24.4918 104.621
lradius 127.212
lwrist 21.0661
lhand -17.7737 -4.06915
lfingers 7.12502
lthumb 8.48875 25.7402
rfemur -2.8149 25.1026 25.7125
rtibia 1.91806
rfoot -11.884 -22.7811
rtoes -0.345481
lfemur 12.09 -49.0482 -18.1986
ltibia -4.74547
lfoot -45.3149 58.0469
ltoes 25.0017
612
root 0.551012 17.4761 9.46546 9.45062 -6.99077 -9.03388
lowerback -3.96863 2.6661 7.56318
upperback -7.63934 3.58685 1.35535
thorax -5.40252 1.4137 -2.81743
lowerneck -11.0444 -2.97328 -0.558276
upperneck 32.6383 -5.80036 4.48324
head 12.8683 -2.0861 1.00765
rclavicle 1.13804e-014 1.39149e-014
rhumerus 13.7317 40.5267 -65.2694
rradius 124.345
rwrist 13.4894
rhand 29.1068 -36.5478
rfingers 7.12502
rthumb 52.9021 -56.1019
lclavicle 1.13804e-014 1.39149e-014
lhumerus -45.2438 -24.5005 104.7
lradius 127.248
lwrist 21.2101
lhand -17.7655 -4.23053
lfingers 7.12502
lthumb 8.49662 25.5785
rfemur -2.78865 25.0981 25.7637
rtibia 1.92151
rfoot -11.9235 -22.8114
rtoes -0.217532
lfemur 12.0229 -48.9559 -18.0878
ltibia -4.73458
lfoot -45.1347 57.9341
ltoes 25.0097
613
root 0.548818 17.4761 9.46386 9.44365 -6.88061 -9.09882
lowerback -3.92889 2.64457 7.51759
upperback -7.65126 3.56485 1.39254
thorax -5.44439 1.40471 -2.75591
lowerneck -11.0186 -3.00634 -0.647931
upperneck 32.5206 -5.8761 4.65711
head 12.8259 -2.11125 1.07917
rclavicle -2.43511e-015 9.14409e-015
rhumerus 14.2329 40.3028 -64.8511
rradius 123.478
rwrist 15.7213
rhand 29.0435 -37.034
rfingers 7.12502
rthumb 52.845 -56.624
lclavicle -2.43511e-015 9.14409e-015
lhumerus -45.1712 -24.3465 104.834
lradius 127.251
lwrist 21.2238
lhand -17.852 -4.34849
lfingers 7.12502
lthumb 8.41318 25.4639
rfemur -2.79019 25.0505 25.8568
rtibia 1.95848
rfoot -11.9694 -22.858
rtoes -0.17637
lfemur 11.9352 -48.8765 -17.8963
ltibia -4.76017
lfoot -44.7821 57.8744
ltoes 24.8782
614
root 0.54659 17.4766 9.46227 9.4655 -6.67994 -9.17002
lowerback -3.94513 2.58451 7.45321
upperback -7.66281 3.48636 1.43913
thorax -5.46098 1.36993 -2.67175
lowerneck -10.9709 -3.03225 -0.647253
upperneck 32.3853 -5.93553 4.75098
head 12.765 -2.12944 1.10643
rclavicle -3.72721e-014 9.54166e-015
rhumerus 14.414 39.9406 -64.5891
rradius 122.781
rwrist 17.2331
rhand 29.6497 -37.8974
rfingers 7.12502
rthumb 53.3918 -57.1385
lclavicle -3.72721e-014 9.54166e-015
lhumerus -45.0732 -24.1413 104.949
lradius 127.22
lwrist 21.1106
lhand -17.9539 -4.39629
lfingers 7.12502
lthumb 8.31487 25.4201
rfemur -2.81319 24.9731 25.9538
rtibia 1.98129
rfoot -11.9825 -22.9495
rtoes -0.313513
lfemur 11.8506 -49.0072 -17.7252
ltibia -4.75271
lfoot -44.7934 57.8116
ltoes 24.91
615
root 0.544539 17.4769 9.46237 9.483 -6.42797 -9.19717
lowerback -3.98427 2.5187 7.34377
upperback -7.65685 3.39635 1.46385
thorax -5.44686 1.33283 -2.58411
lowerneck -10.9249 -3.08408 -0.546193
upperneck 32.198 -6.00971 4.71242
head 12.6747 -2.16019 1.06262
rclavicle -4.11484e-014 -6.95746e-014
rhumerus 14.2999 39.4513 -64.4309
rradius 122.312
rwrist 18.3476
rhand 30.9951 -39.1347
rfingers 7.12502
rthumb 54.5993 -57.5593
lclavicle -4.11484e-014 -6.95746e-014
lhumerus -44.944 -23.9834 105.032
lradius 127.154
lwrist 20.9875
lhand -18.0341 -4.53281
lfingers 7.12502
lthumb 8.23742 25.2866
rfemur -2.80465 24.9251 26.0119
rtibia 1.97546
rfoot -12.0479 -23.1252
rtoes -0.250107
lfemur 11.8716 -49.3716 -17.7121
ltibia -4.7501
lfoot -45.1216 57.8405
ltoes 25.06
616
root 0.541897 17.4757 9.46319 9.47257 -6.16692 -9.22405
lowerback -3.98843 2.48284 7.2225
upperback -7.64523 3.34956 1.48436
thorax -5.44223 1.31762 -2.49563
lowerneck -10.9988 -3.15371 -0.668414
upperneck 32.1927 -6.12986 4.85785
head 12.7031 -2.20792 1.12152
rclavicle 1.25234e-014 -1.98785e-015
rhumerus 13.9142 38.8723 -64.2849
rradius 122.06
rwrist 19.2318
rhand 32.9562 -40.5166
rfingers 7.12502
rthumb 56.3433 -57.6369
lclavicle 1.25234e-014 -1.98785e-015
lhumerus -44.8309 -23.9391 105.108
lradius 127.061
lwrist 20.9058
lhand -18.1258 -4.85698
lfingers 7.12502
lthumb 8.14889 24.9659
rfemur -2.76494 24.8895 26.0895
rtibia 1.97619
rfoot -12.1509 -23.3248
rtoes -0.0841611
lfemur 11.9357 -49.6555 -17.6906
ltibia -4.8359
lfoot -44.8547 58.0723
ltoes 24.632
617
root 0.539787 17.4739 9.46303 9.43773 -5.87218 -9.24708
lowerback -3.93694 2.4496 7.10707
upperback -7.6409 3.31169 1.49371
thorax -5.47518 1.30474 -2.42463
lowerneck -11.0038 -3.25123 -0.907491
upperneck 32.0892 -6.2945 5.12759
head 12.6873 -2.27731 1.24247
rclavicle 1.48592e-014 2.74323e-014
rhumerus 13.3261 38.2325 -64.1636
rradius 121.994
rwrist 19.697
rhand 35.2275 -41.6225
rfingers 7.12502
rthumb 58.3352 -57.0393
lclavicle 1.48592e-014 2.74323e-014
lhumerus -44.7448 -23.9744 105.158
lradius 127.001
lwrist 20.7596
lhand -18.3085 -5.08559
lfingers 7.12502
lthumb 7.97254 24.7441
rfemur -2.70332 24.8767 26.1803
rtibia 1.97992
rfoot -12.2449 -23.5722
rtoes 0.0378562
lfemur 12.0282 -49.9865 -17.7006
ltibia -4.90398
lfoot -44.6281 58.3059
ltoes 24.2835
618
root 0.537585 17.474 9.46218 9.39674 -5.54124 -9.21456
lowerback -3.83969 2.40172 6.94553
upperback -7.64779 3.25837 1.48122
thorax -5.54789 1.28449 -2.35313
lowerneck -10.959 -3.33066 -0.988367
upperneck 31.9137 -6.44276 5.33029
head 12.6229 -2.33165 1.31247
rclavicle -3.23025e-015 -4.96962e-014
rhumerus 12.6046 37.5973 -64.0597
rradius 122.136
rwrist 19.5082
rhand 37.4131 -42.7135
rfingers 7.12502
rthumb 60.2183 -56.2626
lclavicle -3.23025e-015 -4.96962e-014
lhumerus -44.6936 -24.0561 105.199
lradius 127.01
lwrist 20.523
lhand -18.4715 -4.8378
lfingers 7.12502
lthumb 7.81529 24.9978
rfemur -2.62798 24.888 26.2113
rtibia 1.96452
rfoot -12.3911 -23.8835
rtoes 0.473957
lfemur 12.0407 -50.2905 -17.7223
ltibia -4.90857
lfoot -44.4659 58.3793
ltoes 24.1636
